<?xml version="1.0" standalone="no"?>
<!DOCTYPE svg PUBLIC "-//W3C//DTD SVG 20010904//EN"
 "http://www.w3.org/TR/2001/REC-SVG-20010904/DTD/svg10.dtd">
<svg version="1.0" xmlns="http://www.w3.org/2000/svg"
 width="500.000000pt" height="161.000000pt" viewBox="0 0 500.000000 161.000000"
 preserveAspectRatio="xMidYMid meet">

<g transform="translate(0.000000,161.000000) scale(0.100000,-0.100000)"
fill="#000000" stroke="none">
<path d="M50 780 l0 -750 935 0 935 0 0 750 0 750 -935 0 -935 0 0 -750z
m1690 0 l0 -560 -745 0 -745 0 0 560 0 560 745 0 745 0 0 -560z"/>
<path d="M2622 1088 c-7 -7 -12 -20 -12 -30 0 -9 -8 -22 -17 -27 -17 -10 -17
-12 0 -25 13 -10 17 -28 17 -75 0 -54 2 -61 20 -61 18 0 20 7 20 65 0 58 2 65
20 65 13 0 20 7 20 20 0 14 -7 20 -21 20 -27 0 -19 24 9 28 12 2 22 10 22 18
0 18 -61 19 -78 2z"/>
<path d="M3780 985 c0 -108 1 -115 20 -115 17 0 20 7 20 49 0 64 7 81 35 81
28 0 35 -17 35 -81 0 -42 3 -49 20 -49 18 0 20 7 20 68 0 54 -4 72 -18 85 -21
19 -45 21 -73 7 -17 -10 -19 -7 -19 30 0 33 -3 40 -20 40 -19 0 -20 -7 -20
-115z"/>
<path d="M3980 1080 c0 -13 7 -20 20 -20 13 0 20 7 20 20 0 13 -7 20 -20 20
-13 0 -20 -7 -20 -20z"/>
<path d="M4460 1080 c0 -13 7 -20 20 -20 13 0 20 7 20 20 0 13 -7 20 -20 20
-13 0 -20 -7 -20 -20z"/>
<path d="M1990 981 c0 -104 1 -111 20 -111 18 0 20 7 21 83 l1 82 25 -82 c22
-70 29 -83 47 -83 18 0 26 13 48 78 l26 77 1 -77 c1 -71 3 -78 21 -78 19 0 20
7 20 110 l0 110 -29 0 c-28 0 -31 -4 -56 -81 -15 -44 -29 -78 -32 -75 -3 2
-15 37 -27 78 -21 69 -24 73 -54 76 l-32 3 0 -110z"/>
<path d="M3620 1070 c-37 -37 -24 -70 43 -109 20 -13 37 -27 37 -31 0 -19 -38
-30 -65 -20 -35 13 -35 13 -35 -9 0 -22 19 -31 64 -31 97 0 101 105 5 135 -10
4 -19 15 -19 27 0 17 5 20 39 16 31 -3 41 0 44 13 9 33 -82 40 -113 9z"/>
<path d="M2297 1033 c-28 -7 -13 -28 18 -26 29 2 55 -11 55 -28 0 -5 -16 -9
-35 -9 -45 0 -79 -31 -69 -63 4 -12 12 -25 18 -29 17 -12 61 -9 75 5 11 10 14
10 18 0 3 -7 11 -13 19 -13 11 0 14 16 14 69 0 61 -3 72 -22 85 -22 16 -54 19
-91 9z m73 -97 c0 -20 -27 -39 -45 -32 -18 7 -20 32 -2 39 24 10 47 7 47 -7z"/>
<path d="M2460 955 c0 -78 2 -85 20 -85 17 0 20 7 20 49 0 50 17 81 45 81 11
0 25 20 25 36 0 11 -39 2 -51 -12 -11 -14 -13 -14 -21 0 -5 9 -16 16 -23 16
-12 0 -15 -17 -15 -85z"/>
<path d="M2743 1033 c-7 -2 -13 -11 -13 -19 0 -9 11 -13 37 -11 29 1 38 -2 41
-15 3 -14 -3 -18 -28 -18 -46 0 -70 -16 -70 -48 0 -16 5 -33 12 -40 15 -15 53
-16 79 -2 13 7 19 7 19 0 0 -5 10 -10 21 -10 20 0 21 4 17 71 -3 55 -8 74 -23
85 -18 14 -67 18 -92 7z m65 -105 c-3 -25 -34 -36 -51 -19 -14 14 9 41 35 41
14 0 19 -6 16 -22z"/>
<path d="M2910 955 c0 -78 2 -85 20 -85 16 0 19 8 22 63 3 59 4 62 28 62 24 0
25 -3 28 -62 3 -55 6 -63 22 -63 17 0 20 7 20 49 0 65 7 81 36 81 23 0 24 -3
24 -65 0 -63 1 -65 25 -65 24 0 25 2 25 63 0 91 -33 127 -89 97 -12 -6 -29 -5
-50 3 -25 9 -36 9 -53 -2 -16 -10 -23 -10 -26 -2 -2 6 -10 11 -18 11 -11 0
-14 -18 -14 -85z"/>
<path d="M3227 1033 c-28 -7 -13 -28 18 -26 29 2 55 -11 55 -28 0 -5 -16 -9
-35 -9 -45 0 -79 -31 -69 -63 4 -12 12 -25 18 -29 17 -12 61 -9 75 5 11 10 14
10 18 0 3 -7 11 -13 19 -13 11 0 14 16 14 69 0 61 -3 72 -22 85 -22 16 -54 19
-91 9z m73 -97 c0 -20 -27 -39 -45 -32 -18 7 -20 32 -2 39 24 10 47 7 47 -7z"/>
<path d="M3390 955 c0 -78 2 -85 20 -85 17 0 20 7 20 49 0 50 17 81 45 81 11
0 25 20 25 36 0 11 -39 2 -51 -12 -11 -14 -13 -14 -21 0 -5 9 -16 16 -23 16
-12 0 -15 -17 -15 -85z"/>
<path d="M3980 955 c0 -78 2 -85 20 -85 18 0 20 7 20 85 0 78 -2 85 -20 85
-18 0 -20 -7 -20 -85z"/>
<path d="M4070 920 l0 -120 26 0 c24 0 26 3 22 39 l-3 38 35 -4 c48 -7 75 23
75 82 0 67 -55 110 -94 73 -11 -10 -14 -10 -18 0 -3 6 -13 12 -24 12 -18 0
-19 -8 -19 -120z m108 39 c3 -39 -15 -63 -42 -53 -11 4 -16 18 -16 43 0 44 7
53 35 49 15 -2 21 -12 23 -39z"/>
<path d="M4270 920 c0 -113 1 -120 20 -120 17 0 20 7 20 47 0 37 3 44 12 35
20 -20 65 -14 82 10 23 33 21 103 -4 128 -22 22 -42 25 -70 10 -13 -7 -21 -7
-25 0 -3 5 -13 10 -21 10 -11 0 -14 -22 -14 -120z m106 54 c4 -14 2 -36 -5
-50 -20 -44 -61 -23 -61 31 0 38 6 45 36 45 17 0 25 -7 30 -26z"/>
<path d="M4460 955 c0 -78 2 -85 20 -85 18 0 20 7 20 85 0 78 -2 85 -20 85
-18 0 -20 -7 -20 -85z"/>
<path d="M4560 955 c0 -78 2 -85 20 -85 16 0 19 8 22 63 3 59 4 62 31 65 l27
3 0 -65 c0 -64 1 -66 25 -66 24 0 25 2 25 65 0 52 -4 69 -20 85 -23 23 -60 26
-79 8 -11 -10 -14 -10 -18 0 -3 6 -11 12 -19 12 -11 0 -14 -18 -14 -85z"/>
<path d="M4768 1028 c-23 -20 -28 -43 -13 -72 8 -16 10 -28 4 -32 -5 -3 -7
-14 -4 -23 3 -10 -1 -24 -10 -31 -54 -44 44 -93 119 -59 55 26 38 86 -26 91
-49 4 -66 28 -20 28 38 0 65 26 59 57 -3 15 1 23 9 23 8 0 14 7 14 15 0 19
-108 21 -132 3z m69 -34 c7 -19 -20 -49 -36 -40 -6 4 -11 18 -11 32 0 17 5 24
20 24 11 0 23 -7 27 -16z m18 -144 c0 -10 -13 -16 -42 -18 -32 -2 -43 1 -43
11 0 22 12 28 50 25 23 -2 35 -8 35 -18z"/>
<path d="M3840 660 c0 -13 7 -20 20 -20 13 0 20 7 20 20 0 13 -7 20 -20 20
-13 0 -20 -7 -20 -20z"/>
<path d="M3240 650 c0 -16 7 -20 30 -20 l30 0 0 -90 c0 -83 1 -90 20 -90 19 0
20 7 20 90 l0 90 30 0 c23 0 30 4 30 20 0 18 -7 20 -80 20 -73 0 -80 -2 -80
-20z"/>
<path d="M2843 594 c-22 -22 -25 -32 -20 -72 6 -56 27 -74 82 -70 30 2 41 8
43 22 3 15 0 18 -21 12 -35 -8 -54 1 -61 30 -9 36 10 64 44 64 33 0 49 18 29
31 -27 17 -70 9 -96 -17z"/>
<path d="M3005 595 c-31 -30 -33 -82 -4 -119 16 -20 29 -26 59 -26 30 0 43 6
59 26 45 58 10 144 -59 144 -19 0 -40 -9 -55 -25z m85 -39 c16 -44 -8 -84 -44
-70 -20 8 -29 50 -16 74 15 28 48 25 60 -4z"/>
<path d="M3437 613 c-12 -11 -7 -107 6 -133 14 -28 54 -38 87 -20 13 7 20 7
20 0 0 -5 9 -10 20 -10 20 0 21 5 18 83 -3 74 -5 82 -23 82 -17 0 -20 -8 -23
-57 -3 -59 -20 -85 -47 -74 -11 4 -15 22 -15 71 0 56 -2 65 -18 65 -10 0 -22
-3 -25 -7z"/>
<path d="M3640 535 c0 -78 2 -85 20 -85 17 0 20 7 20 49 0 64 7 81 35 81 28 0
35 -17 35 -81 0 -42 3 -49 20 -49 18 0 20 7 20 68 0 54 -4 72 -18 85 -22 20
-45 21 -75 6 -16 -9 -22 -9 -25 0 -2 6 -10 11 -18 11 -11 0 -14 -18 -14 -85z"/>
<path d="M3840 535 c0 -78 2 -85 20 -85 18 0 20 7 20 85 0 78 -2 85 -20 85
-18 0 -20 -7 -20 -85z"/>
<path d="M3940 602 c-30 -24 -19 -58 26 -79 49 -24 46 -47 -7 -40 -34 4 -40 3
-37 -11 2 -12 16 -18 49 -20 83 -5 106 61 33 95 -47 23 -46 47 1 39 27 -5 35
-4 35 7 0 31 -66 36 -100 9z"/>
</g>
</svg>
